
	<svg xmlns="http://www.w3.org/2000/svg" xmlns:xlink="http://www.w3.org/1999/xlink" version="1.1" width="128" height="128" viewBox="0 0 100 100">


		<defs>
			<linearGradient id="Gradient_1" gradientUnits="userSpaceOnUse" x1="50" y1="100" x2="50" y2="0" spreadMethod="pad">
			<stop offset="0%" stop-color="#A7A9AC"/>
			<stop offset="50%" stop-color="#F1F2F2"/>
			<stop offset="100%" stop-color="#A7A9AC"/>
		</linearGradient><linearGradient id="Gradient_2" gradientUnits="userSpaceOnUse" x1="50" y1="17" x2="50" y2="5" spreadMethod="pad">
			<stop offset="0%" stop-color="#FFFFFF" stop-opacity="0"/>
			<stop offset="100%" stop-color="#FFFFFF"/>
		</linearGradient><linearGradient id="Gradient_3" gradientUnits="userSpaceOnUse" x1="5" y1="13" x2="95" y2="13" spreadMethod="pad">
			<stop offset="0%" stop-color="#D1D3D4"/>
			<stop offset="18%" stop-color="#231F20"/>
			<stop offset="50%" stop-color="#ffffff"/>
			<stop offset="82%" stop-color="#231F20"/>
			<stop offset="100%" stop-color="#D1D3D4"/>
		</linearGradient><linearGradient id="Gradient_4" gradientUnits="userSpaceOnUse" x1="0" y1="88" x2="100" y2="88" spreadMethod="pad">
			<stop offset="0%" stop-color="#6D6E71"/>
			<stop offset="1.08%" stop-color="#FFFFFF"/>
			<stop offset="4.84%" stop-color="#58595B"/>
			<stop offset="5.91%" stop-color="#58595B"/>
			<stop offset="10.22%" stop-color="#FFFFFF"/>
			<stop offset="16.67%" stop-color="#231F20"/>
			<stop offset="23.66%" stop-color="#231F20"/>
			<stop offset="29%" stop-color="#FFFFFF"/>
			<stop offset="50%" stop-color="#939598"/>
			<stop offset="71%" stop-color="#FFFFFF"/>
			<stop offset="76.34%" stop-color="#231F20"/>
			<stop offset="83.33%" stop-color="#231F20"/>
			<stop offset="89.78%" stop-color="#FFFFFF"/>
			<stop offset="94.09%" stop-color="#58595B"/>
			<stop offset="95.16%" stop-color="#58595B"/>
			<stop offset="98.92%" stop-color="#FFFFFF"/>
			<stop offset="100%" stop-color="#6D6E71"/>
		</linearGradient><linearGradient id="Gradient_6" gradientUnits="userSpaceOnUse" x1="50" y1="60" x2="50" y2="0" spreadMethod="pad">
			<stop offset="0%" stop-color="#FFFFFF" stop-opacity="0.2"/>
			<stop offset="100%" stop-color="#FFFFFF" stop-opacity="0.7"/>
		</linearGradient><linearGradient id="Gradient_7" gradientUnits="userSpaceOnUse" x1="58" y1="0" x2="58.15" y2="92" spreadMethod="pad">
			<stop offset="0%" stop-color="#FFFFFF" stop-opacity="0.1"/>
			<stop offset="100%" stop-color="#FFFFFF" stop-opacity="0.5"/>
		</linearGradient><linearGradient id="Gradient_8" gradientUnits="userSpaceOnUse" x1="42" y1="92" x2="42" y2="0" spreadMethod="pad">
			<stop offset="0%" stop-color="#FFFFFF" stop-opacity="0.1"/>
			<stop offset="100%" stop-color="#FFFFFF" stop-opacity="0.5"/>
		</linearGradient><g id="top-1">
			<path fill="url(#Gradient_1)" stroke="none" d="   M 100 18.1   Q 100 10.6 94.7 5.3 89.4 0 81.9 0   L 18.1 0   Q 10.6 0 5.3 5.3 0 10.6 0 18.1   L 0 74.65   Q 0.15 81.85 5.3 86.95 10.6 92.3 18.1 92.3   L 81.9 92.3   Q 89.4 92.3 94.7 86.95 99.85 81.85 100 74.65   L 100 18.1 Z"/>
		</g><g id="top-2">
			<path fill="#FFFFFF" fill-opacity="0.2" stroke="none" d="   M 100 37.5   L 100 36.8 0 36.8 0 37.5 100 37.5   M 100 43.85   L 100 43.15 0 43.15 0 43.85 100 43.85   M 100 45.2   L 100 44.05 0 44.05 0 45.2 100 45.2   M 100 47.9   L 100 47.2 0 47.2 0 47.9 100 47.9   M 100 36.6   L 100 35.9 0 35.9 0 36.6 100 36.6   M 100 31.6   L 100 30.95 0 30.95 0 31.6 100 31.6   M 100 33   L 100 31.85 0 31.85 0 33 100 33   M 100 33.9   L 100 33.2 0 33.2 0 33.9 100 33.9   M 100 35.7   L 100 35 0 35 0 35.7 100 35.7   M 100 34.8   L 100 34.1 0 34.1 0 34.8 100 34.8   M 100 27.55   L 100 26.9 0 26.9 0 27.55 100 27.55   M 100 28.9   L 100 27.8 0 27.8 0 28.9 100 28.9   M 100 29.8   L 100 29.15 0 29.15 0 29.8 100 29.8   M 100 30.7   L 100 30.05 0 30.05 0 30.7 100 30.7   M 100 26.65   L 100 25.5 0 25.5 0 26.65 100 26.65   M 100 80.45   L 100 79.75 0 79.75 0 80.45 100 80.45   M 100 82.7   L 100 82.05 0 82.05 0 82.7 100 82.7   M 100 81.8   L 100 80.65 0 80.65 0 81.8 100 81.8   M 99.9 83.6   L 99.95 82.95 0.05 82.95 0.1 83.6 99.9 83.6   M 100 75.45   L 100 74.35 0 74.35 0 75.45 100 75.45   M 100 78.65   L 100 77.95 0 77.95 0 78.65 100 78.65   M 100 76.4   L 100 75.7 0 75.7 0 76.4 100 76.4   M 100 74.1   L 100 73.45 0 73.45 0 74.1 100 74.1   M 100 25.3   L 100 24.6 0 24.6 0 25.3 100 25.3   M 100 47   L 100 46.3 0 46.3 0 47 100 47   M 100 46.1   L 100 45.4 0 45.4 0 46.1 100 46.1   M 100 39.75   L 100 39.1 0 39.1 0 39.75 100 39.75   M 100 38.85   L 100 37.75 0 37.75 0 38.85 100 38.85   M 100 42   L 100 41.35 0 41.35 0 42 100 42   M 100 42.9   L 100 42.25 0 42.25 0 42.9 100 42.9   M 100 41.1   L 100 40 0 40 0 41.1 100 41.1   M 100 48.8   L 100 48.1 0 48.1 0 48.8 100 48.8   M 92.05 3.15   Q 91.55 2.8 91 2.45   L 9 2.45 7.9 3.15 92.05 3.15   M 100 19.4   L 100 18.75 0 18.75 0 19.4 100 19.4   M 100 22.6   L 100 21.9 0 21.9 0 22.6 100 22.6   M 100 21.7   L 100 21 0 21 0 21.7 100 21.7   M 100 23.5   L 100 22.8 0 22.8 0 23.5 100 23.5   M 100 24.4   L 100 23.7 0 23.7 0 24.4 100 24.4   M 100 20.75   L 100 19.65 0 19.65 0 20.75 100 20.75   M 99.75 15.35   L 99.65 14.65 0.35 14.65 0.2 15.35 99.75 15.35   M 99.3 13.1   L 99.05 12.4 0.95 12.4   Q 0.75 12.95 0.7 13.1   L 99.3 13.1   M 99.6 14.45   Q 99.6 14.3 99.35 13.3   L 0.65 13.3   Q 0.5 13.85 0.4 14.45   L 99.6 14.45   M 100 17.6   L 99.95 16.95 0.05 16.95 0 17.6 100 17.6   M 99.95 16.7   L 99.8 15.55 0.2 15.55 0.05 16.7 99.95 16.7   M 90.6 2.25   Q 89.35 1.55 88.1 1.1   L 11.9 1.1   Q 10.6 1.55 9.4 2.25   L 90.6 2.25   M 96.35 7.2   Q 95.95 6.7 95.8 6.55   L 4.2 6.55 3.65 7.2 96.35 7.2   M 95.6 6.3   L 95 5.65 5 5.65 4.4 6.3 95.6 6.3   M 99 12.2   Q 98.9 11.85 98.75 11.5   L 1.25 11.5 1 12.2 99 12.2   M 97.25 8.55   Q 97.15 8.35 96.5 7.45   L 3.5 7.45   Q 3.05 8 2.7 8.55   L 97.25 8.55   M 98.25 10.4   L 97.9 9.7 2.1 9.7 1.75 10.4 98.25 10.4   M 98.65 11.3   Q 98.5 10.85 98.35 10.6   L 1.65 10.6 1.35 11.3 98.65 11.3   M 97.8 9.45   L 97.4 8.8 2.6 8.8   Q 2.35 9.15 2.2 9.45   L 97.8 9.45   M 93.8 4.5   Q 93.1 3.85 92.4 3.35   L 7.6 3.35   Q 6.9 3.85 6.15 4.5   L 93.8 4.5   M 99.8 84.5   L 99.9 83.85 0.1 83.85 0.2 84.5 99.8 84.5   M 100 77.75   L 100 76.6 0 76.6 0 77.75 100 77.75   M 100 79.55   L 100 78.85 0 78.85 0 79.55 100 79.55   M 98.7 88.6   L 98.95 87.9 1 87.9 1.3 88.6 98.7 88.6   M 97.1 91.75   L 97.5 91.05 2.5 91.05 2.9 91.75 97.1 91.75   M 100 18.5   L 100 17.85 0 17.85 0 18.5 100 18.5   M 96.45 92.65   L 96.9 91.95 3.05 91.95 3.55 92.65 96.45 92.65   M 94.8 5.4   Q 94.4 5 94.1 4.7   L 5.9 4.7   Q 5.6 5 5.2 5.4   L 94.8 5.4   M 99.65 85.4   L 99.75 84.75 0.25 84.75 0.35 85.4 99.65 85.4   M 87.45 0.9   Q 84.7 0 81.9 0   L 18.1 0   Q 15.25 0 12.55 0.9   L 87.45 0.9   M 99.45 86.3   L 99.6 85.65 0.4 85.65 0.55 86.3 99.45 86.3   M 99.05 87.7   L 99.4 86.55 0.6 86.55 0.95 87.7 99.05 87.7   M 98.1 89.95   Q 98.25 89.65 98.6 88.8   L 1.4 88.8 1.9 89.95 98.1 89.95   M 100 73.2   L 100 72.55 0 72.55 0 73.2 100 73.2   M 97.6 90.85   L 98 90.15 2 90.15 2.35 90.85 97.6 90.85   M 100 58.3   L 100 57.6 0 57.6 0 58.3 100 58.3   M 100 49.7   L 100 49.05 0 49.05 0 49.7 100 49.7   M 100 61   L 100 60.35 0 60.35 0 61 100 61   M 100 56.05   L 100 55.35 0 55.35 0 56.05 100 56.05   M 100 60.1   L 100 59.4 0 59.4 0 60.1 100 60.1   M 100 59.2   L 100 58.5 0 58.5 0 59.2 100 59.2   M 100 57.4   L 100 56.25 0 56.25 0 57.4 100 57.4   M 100 51.95   L 100 51.3 0 51.3 0 51.95 100 51.95   M 100 55.15   L 100 54.45 0 54.45 0 55.15 100 55.15   M 100 51.05   L 100 49.95 0 49.95 0 51.05 100 51.05   M 100 53.3   L 100 52.2 0 52.2 0 53.3 100 53.3   M 100 54.25   L 100 53.55 0 53.55 0 54.25 100 54.25   M 100 70.5   L 100 69.8 0 69.8 0 70.5 100 70.5   M 100 69.6   L 100 68.45 0 68.45 0 69.6 100 69.6   M 100 72.3   L 100 71.65 0 71.65 0 72.3 100 72.3   M 100 61.9   L 100 61.25 0 61.25 0 61.9 100 61.9   M 100 71.4   L 100 70.75 0 70.75 0 71.4 100 71.4   M 100 68.25   L 100 67.55 0 67.55 0 68.25 100 68.25   M 100 63.25   L 100 62.15 0 62.15 0 63.25 100 63.25   M 100 64.15   L 100 63.5 0 63.5 0 64.15 100 64.15   M 100 65.55   L 100 64.4 0 64.4 0 65.55 100 65.55   M 100 66.45   L 100 65.75 0 65.75 0 66.45 100 66.45   M 100 67.35   L 100 66.65 0 66.65 0 67.35 100 67.35 Z"/>
		</g><g id="top-3">
			<path fill="url(#Gradient_2)" stroke="none" d="   M 85.45 5.9   Q 87.2693359375 6.536328125 88.85 7.5 89.8287109375 8.190625 90.7 9.05 91.8341796875 10.151171875 92.65 11.4   L 93.85 13.9 94.1 14.7   Q 94.4771484375 15.8884765625 94.6 17.2 94.7 12.15 90.95 8.35 87.15 4.55 81.95 4.55   L 18.1 4.55   Q 12.85 4.55 9.2 8.1 5.776953125 11.523046875 5.45 16.65 5.457421875 16.9296875 5.45 17.2 5.9 12.35 9.4 9 10.666015625 7.7515625 12.1 6.9 14.7875 5.73359375 17.45 5.45 17.6205078125 5.453515625 17.75 5.45 17.9388671875 5.45 18.1 5.45   L 81.95 5.45   Q 83.8048828125 5.45625 85.45 5.9 Z"/>
			<path fill="url(#Gradient_3)" stroke="none" d="   M 88.85 7.5   Q 87.2693359375 6.536328125 85.45 5.9 83.8048828125 5.45625 81.95 5.45   L 18.1 5.45   Q 17.9388671875 5.45 17.75 5.45 17.6205078125 5.453515625 17.45 5.45 14.7875 5.73359375 12.1 6.9 10.666015625 7.7515625 9.4 9 5.9 12.35 5.45 17.2 5.457421875 16.9296875 5.45 16.65 5.4 17.366796875 5.4 18.1   L 5.4 20.85   Q 5.55 15.85 9.15 12.3 12.85 8.6 18.1 8.6   L 81.9 8.6   Q 87.15 8.6 90.85 12.3 94.45 15.85 94.55 20.85   L 94.55 18.1   Q 94.55 16.303515625 94.1 14.7   L 93.85 13.9 92.65 11.4   Q 91.8341796875 10.151171875 90.7 9.05 89.8287109375 8.190625 88.85 7.5 Z"/>
			<path fill="#FFFFFF" fill-opacity="1" stroke="none" d="   M 100 75.55   L 100 74.65   Q 99.85 81.85 94.7 86.95 89.4 92.3 81.9 92.3   L 18.1 92.3   Q 10.6 92.3 5.3 86.95 0.15 81.85 0 74.65   L 0 75.55   Q 0.159765625 82.759765625 5.3 87.9 10.6 93.2 18.1 93.2   L 81.9 93.2   Q 89.4 93.2 94.7 87.9 99.840234375 82.759765625 100 75.55 Z"/>
			<path fill="url(#Gradient_4)" stroke="none" d="   M 100 81.9   L 100 75.55   Q 99.840234375 82.759765625 94.7 87.9 89.4 93.2 81.9 93.2   L 18.1 93.2   Q 10.6 93.2 5.3 87.9 0.159765625 82.759765625 0 75.55   L 0 81.9   Q 0 88.637890625 4.25 93.6 4.49375 93.85234375 4.7 94.1 5.003515625 94.403515625 5.3 94.7 10.6 100 18.1 100   L 81.9 100   Q 89.4 100 94.7 94.7 94.996484375 94.403515625 95.25 94.1 95.50625 93.85234375 95.7 93.6 100 88.637890625 100 81.9 Z"/>
		</g><g id="background">
			<path fill="url(#background-gradient)" stroke="none" d="   M 90.85 12.3   Q 87.15 8.6 81.9 8.6   L 18.1 8.6   Q 12.85 8.6 9.15 12.3 5.55 15.9 5.45 20.85   L 5.45 74.7   Q 5.45 79.9 9.15 83.65 12.85 87.35 18.1 87.35   L 81.9 87.35   Q 87.15 87.35 90.85 83.65 94.55 79.9 94.55 74.7   L 94.55 20.85   Q 94.45 15.9 90.85 12.3 Z"/>
		</g><mask id="mask">
			<path fill="#FFFFFF" stroke="none" d="   M 90.85 12.3   Q 87.15 8.6 81.9 8.6   L 18.1 8.6   Q 12.85 8.6 9.15 12.3 5.55 15.9 5.45 20.85   L 5.45 74.7   Q 5.45 79.9 9.15 83.65 12.85 87.35 18.1 87.35   L 81.9 87.35   Q 87.15 87.35 90.85 83.65 94.55 79.9 94.55 74.7   L 94.55 20.85   Q 94.45 15.9 90.85 12.3 Z"/>
		</mask><g id="gloss-top">
			<path fill="url(#Gradient_6)" stroke="none" d="   M 100 18.1   Q 100 10.65 94.7 5.3 89.4 0 81.9 0   L 18.1 0   Q 10.65 0 5.3 5.3 0 10.65 0 18.1   L 0 37.6   Q 9.25 47.95 22.05 53.7 35.25 59.7 50 59.7 64.75 59.7 78 53.7 90.75 47.95 100 37.6   L 100 18.1 Z"/>
		</g><g id="gloss-right">
			<path fill="url(#Gradient_7)" stroke="none" d="   M 99.9 18.1   Q 99.9 10.65 94.65 5.3 89.4 0 81.85 0   L 18.05 0   Q 17.45 0 16.3 0.1   L 71.7 92.35 81.85 92.35   Q 89.35 92.35 94.65 87.05 99.9 81.7 99.9 74.25   L 99.9 18.1 Z"/>
		</g><g id="gloss-left">
			<path fill="url(#Gradient_8)" stroke="none" d="   M 83.65 0.1   Q 82.55 0 81.9 0   L 18.1 0   Q 10.65 0 5.3 5.3 0 10.65 0 18.1   L 0 74.25   Q 0 81.7 5.3 87.05 10.65 92.35 18.1 92.35   L 28.25 92.35 83.65 0.1 Z"/>
		</g>
			
	<linearGradient id="background-gradient" x1="0" y1="0" y2="1" x2="0" >
		<stop stop-color="#0f34b7" offset="0%"/>
		<stop stop-color="#c10b2f" offset="100%"/>
	</linearGradient>

			
			
			<g transform="scale(3.3333333333333335)" id="picture"><path d="M29.5 26.5H17V26c0-.3-.2-.5-.5-.5H16V25c0-.3-.2-.5-.5-.5H15v-2h8.5c3.6 0 6.5-2.9 6.5-6.5 0-3.4-2.7-6.3-6.1-6.5-.7-4.6-4.7-8-9.4-8C9.3 1.5 5 5.8 5 11v.5c-2.8.2-5 2.6-5 5.5 0 3 2.5 5.5 5.5 5.5H14v2h-.5c-.3 0-.5.2-.5.5v.5h-.5c-.3 0-.5.2-.5.5v.5H.5c-.3 0-.5.2-.5.5s.2.5.5.5H12v.5c0 .3.2.5.5.5h4c.3 0 .5-.2.5-.5v-.5h12.5c.3 0 .5-.2.5-.5s-.2-.5-.5-.5z"/></g>
			
	<linearGradient id="picture-gradient" x1="0" y1="0" y2="1" x2="0" >
		<stop stop-color="#ffffff" offset="0%"/>
		<stop stop-color="#e5eff9" offset="100%"/>
	</linearGradient>

		</defs>

		<use xlink:href="#top-1" /><use xlink:href="#top-2" /><use xlink:href="#top-3" />

			<use xlink:href="#background" fill="url(#background-gradient)" />

		

			<g mask="url(#mask)">
				<g transform="
				        translate(
                                50 50
)
                            translate(0 0)  scale(0.5)  
                            translate(
                                -50 -50
)">
						<use xlink:href="#picture" fill="url(#picture-gradient)"  />
				</g>
			</g>

		



	</svg>
